<svg width="390" height="262" viewBox="0 0 390 262" fill="none" xmlns="http://www.w3.org/2000/svg">
<rect x="66" y="104" width="279" height="15" rx="7.5" fill="#BD5D38"/>
<rect x="32" y="78" width="279" height="15" rx="7.5" fill="#BD5D38"/>
<rect y="52" width="279" height="15" rx="7.5" fill="#BD5D38"/>
<rect x="32" y="26" width="279" height="15" rx="7.5" fill="#BD5D38"/>
<rect x="66" width="279" height="15" rx="7.5" fill="#BD5D38"/>
<rect y="130" width="279" height="15" rx="7.5" fill="#BD5D38"/>
<rect x="34.2786" y="155.632" width="279" height="15" rx="7.5" fill="#BD5D38"/>
<rect x="66.5574" y="181.285" width="279" height="15" rx="7.5" fill="#BD5D38"/>
<rect x="34.8398" y="207.629" width="279" height="15" rx="7.5" fill="#BD5D38"/>
<rect x="1.12244" y="233.994" width="279" height="15" rx="7.5" fill="#BD5D38"/>
<ellipse cx="274" cy="164" rx="97" ry="55" fill="#23272A"/>
<rect x="148" y="140" width="242" height="122" rx="5" fill="#343A40"/>
<line x1="155" y1="145" x2="155" y2="256" stroke="#23272A" stroke-width="2"/>
<line x1="384" y1="146" x2="384" y2="255" stroke="#23272A" stroke-width="2"/>
<line x1="384.999" y1="146.146" x2="153.999" y2="146" stroke="#23272A" stroke-width="2"/>
<line x1="384.999" y1="255.144" x2="153.999" y2="254.999" stroke="#23272A" stroke-width="2"/>
<path d="M314 80C314 104.853 297.353 118.863 272.5 118.863C247.647 118.863 226 103.716 226 78.8635C226 54.0107 245.147 31 270 31C294.853 31 314 55.1472 314 80Z" fill="#EEBCC5"/>
<path d="M301.572 32.9391C296.845 19.5729 270.335 15.0529 269.996 15C269.656 15.0529 243.142 19.5685 238.42 32.9391C233.668 46.4111 219.417 84.2453 220.018 94.4793C220.62 104.713 237.88 115 237.88 115L261.869 120.994C261.869 120.994 239.017 102.184 236.645 94.4793C234.273 86.7741 234.318 73.9542 236.645 71.9717C243.624 58.6986 252.387 46.61 262.648 36.0978C264.656 34.1122 267.282 33.0105 270.008 33.0105C272.734 33.0105 275.36 34.1122 277.368 36.0978C287.63 46.61 296.392 58.6986 303.371 71.9717C305.698 73.9542 308.376 84.3257 306 92C303.624 99.6743 281.259 118.514 281.259 118.514L302.12 115C302.12 115 319.376 104.74 319.981 94.4793C320.586 84.2189 306.348 46.4199 301.572 32.9391Z" fill="#23272A"/>
<path d="M257 80C257 81.6569 255.657 83 254 83C252.343 83 251 81.6569 251 80C251 78.3431 252.343 77 254 77C255.657 77 257 78.3431 257 80Z" fill="black"/>
<circle cx="287" cy="80" r="3" fill="black"/>
<path d="M286.5 65L297 62.5H298L297 60.5L294 56.5L289 50L285 44.5L280.5 40L277 36.5L274 33.5H270H267L262.5 36L258 41.5L250.5 50.5L240 63.5L248.5 60.5V66.5L256 60.5V66.5L267.5 59L265.5 65L278 59L275 65L289 59L286.5 65Z" fill="#A9C159" stroke="#A9C159"/>
<path d="M264.029 195.094L268.473 208.943L272.902 195.094H279.219V215H274.406V210.352L274.871 200.836L270.059 215H266.887L262.061 200.822L262.525 210.352V215H257.727V195.094H264.029Z" fill="#BD5D38"/>
<path d="M232.03 73.8824C232 74.8117 232.469 75.1776 232.845 75.4719C232.965 75.567 233.07 75.6484 233.15 75.7447C233.327 75.9604 233.453 76.2283 233.525 76.5414C235.076 83.3481 235.425 84.2759 239.362 85.7766C241.247 86.4956 245.122 86.9777 249.004 86.9777C252.031 86.9777 256.403 86.6894 260.039 85.3169C265.337 83.3164 267.31 76.4115 267.403 76.064C267.408 76.0289 267.565 75.2051 269.985 75.2051H269.988L270.136 75.2042C272.431 75.2042 272.59 76.0289 272.606 76.1179C272.688 76.4115 274.662 83.3154 279.959 85.3169C283.595 86.6903 287.968 86.9777 290.995 86.9777C294.877 86.9777 298.751 86.4945 300.636 85.7766C304.573 84.2759 304.923 83.3472 306.474 76.5405C306.545 76.2283 306.672 75.9606 306.849 75.744C306.928 75.6476 307.032 75.5661 307.153 75.471C307.529 75.1767 307.999 74.8097 307.968 73.8815C307.963 73.7261 307.972 73.4494 307.981 73.1463C307.996 72.6833 308.011 72.1619 307.989 71.8809C307.877 70.5042 306.194 69.9436 305.347 69.8438C299.931 69.0388 293.428 68.8056 286.563 69.1623L286.205 69.1807C282.017 69.3951 279.711 69.513 276.962 70.4037C276.325 70.6107 275.669 70.8447 275.088 71.0605C274.054 71.4458 272.562 71.8638 271.759 71.991C271.437 72.0431 271.109 72.0941 270.82 72.1362C270.402 72.1975 269.595 72.1975 269.178 72.1362C268.888 72.0932 268.561 72.0431 268.238 71.991C267.437 71.8638 265.945 71.4458 264.911 71.0605C264.33 70.8448 263.674 70.6107 263.036 70.4037C260.287 69.513 257.982 69.3951 253.794 69.1807L253.435 69.1623C246.568 68.8067 240.056 69.0406 234.678 69.8409C233.806 69.9443 232.124 70.5051 232.012 71.8818C231.988 72.1626 232.004 72.6842 232.019 73.147C232.026 73.4513 232.035 73.7284 232.03 73.8824ZM306.409 72.1912V73.2097L304.656 72.7006L306.409 72.1912ZM276.013 73.6525C276.278 73.1759 277.948 71.5884 288.307 71.152C290.123 71.0757 291.663 71.0383 293.017 71.0383C299.125 71.0383 301.069 71.833 302.225 73.1146C302.918 73.8813 303.388 75.4853 303.394 76.502C303.407 78.7225 302.789 82.6692 298.535 84.1614C296.586 84.8448 293.662 85.253 290.717 85.253C285.062 85.253 280.543 83.8619 278.629 81.5328C274.604 76.6393 275.963 73.734 276.013 73.6525ZM237.77 73.1139C238.928 71.8318 240.871 71.0376 246.979 71.0376C248.333 71.0376 249.873 71.075 251.689 71.1513C262.046 71.5884 263.718 73.1761 264.014 73.708C264.03 73.7342 265.391 76.6405 261.369 81.5332C259.454 83.8622 254.936 85.2534 249.282 85.2534C246.335 85.2534 243.412 84.8452 241.462 84.1618C237.207 82.6696 236.591 78.7228 236.603 76.5024C236.608 75.4842 237.078 73.8806 237.77 73.1139ZM233.586 72.1912L235.338 72.7004L233.586 73.2095V72.1912Z" fill="black"/>
</svg>
